<mxfile host="65bd71144e">
    <diagram id="aO9cFqwc_-uJd0MbxIFa" name="Page-1">
        <mxGraphModel dx="597" dy="315" grid="1" gridSize="10" guides="1" tooltips="1" connect="1" arrows="1" fold="1" page="1" pageScale="1" pageWidth="850" pageHeight="1100" math="0" shadow="0">
            <root>
                <mxCell id="0"/>
                <mxCell id="1" parent="0"/>
                <mxCell id="2" value="1" style="text;html=1;align=center;verticalAlign=middle;resizable=0;points=[];autosize=1;strokeColor=none;fillColor=none;fontSize=20;" vertex="1" parent="1">
                    <mxGeometry x="160" y="115" width="30" height="40" as="geometry"/>
                </mxCell>
                <mxCell id="3" value="" style="group;strokeColor=default;strokeWidth=2;" vertex="1" connectable="0" parent="1">
                    <mxGeometry x="200" y="110" width="330" height="50" as="geometry"/>
                </mxCell>
                <mxCell id="4" value="&lt;font style=&quot;font-size: 20px;&quot;&gt;64&lt;/font&gt;" style="ellipse;whiteSpace=wrap;html=1;" vertex="1" parent="3">
                    <mxGeometry width="50" height="50" as="geometry"/>
                </mxCell>
                <mxCell id="5" value="&lt;font style=&quot;font-size: 20px;&quot;&gt;25&lt;/font&gt;" style="ellipse;whiteSpace=wrap;html=1;" vertex="1" parent="3">
                    <mxGeometry x="70" width="50" height="50" as="geometry"/>
                </mxCell>
                <mxCell id="6" value="&lt;font style=&quot;font-size: 20px;&quot;&gt;12&lt;/font&gt;" style="ellipse;whiteSpace=wrap;html=1;" vertex="1" parent="3">
                    <mxGeometry x="140" width="50" height="50" as="geometry"/>
                </mxCell>
                <mxCell id="7" value="&lt;font style=&quot;font-size: 20px;&quot;&gt;22&lt;/font&gt;" style="ellipse;whiteSpace=wrap;html=1;" vertex="1" parent="3">
                    <mxGeometry x="210" width="50" height="50" as="geometry"/>
                </mxCell>
                <mxCell id="8" value="&lt;font style=&quot;font-size: 20px;&quot;&gt;11&lt;/font&gt;" style="ellipse;whiteSpace=wrap;html=1;" vertex="1" parent="3">
                    <mxGeometry x="280" width="50" height="50" as="geometry"/>
                </mxCell>
                <mxCell id="10" value="2" style="text;html=1;align=center;verticalAlign=middle;resizable=0;points=[];autosize=1;strokeColor=none;fillColor=none;fontSize=20;" vertex="1" parent="1">
                    <mxGeometry x="140" y="210" width="30" height="40" as="geometry"/>
                </mxCell>
                <mxCell id="27" value="" style="group" vertex="1" connectable="0" parent="1">
                    <mxGeometry x="200" y="205" width="60" height="50" as="geometry"/>
                </mxCell>
                <mxCell id="16" value="&lt;font style=&quot;font-size: 20px;&quot;&gt;11&lt;/font&gt;" style="ellipse;whiteSpace=wrap;html=1;" vertex="1" parent="27">
                    <mxGeometry x="5" width="50" height="50" as="geometry"/>
                </mxCell>
                <mxCell id="20" value="" style="group;strokeColor=default;strokeWidth=2;container=0;" vertex="1" connectable="0" parent="27">
                    <mxGeometry width="60" height="50" as="geometry"/>
                </mxCell>
                <mxCell id="28" value="" style="group" vertex="1" connectable="0" parent="1">
                    <mxGeometry x="380" y="205" width="190" height="50" as="geometry"/>
                </mxCell>
                <mxCell id="18" value="" style="group;strokeColor=default;strokeWidth=2;container=0;" vertex="1" connectable="0" parent="28">
                    <mxGeometry width="190" height="50" as="geometry"/>
                </mxCell>
                <mxCell id="12" value="&lt;font style=&quot;font-size: 20px;&quot;&gt;64&lt;/font&gt;" style="ellipse;whiteSpace=wrap;html=1;" vertex="1" parent="28">
                    <mxGeometry width="50" height="50" as="geometry"/>
                </mxCell>
                <mxCell id="13" value="&lt;font style=&quot;font-size: 20px;&quot;&gt;25&lt;/font&gt;" style="ellipse;whiteSpace=wrap;html=1;" vertex="1" parent="28">
                    <mxGeometry x="70" width="50" height="50" as="geometry"/>
                </mxCell>
                <mxCell id="15" value="&lt;font style=&quot;font-size: 20px;&quot;&gt;22&lt;/font&gt;" style="ellipse;whiteSpace=wrap;html=1;" vertex="1" parent="28">
                    <mxGeometry x="140" width="50" height="50" as="geometry"/>
                </mxCell>
                <mxCell id="29" value="" style="group" vertex="1" connectable="0" parent="1">
                    <mxGeometry x="290" y="205" width="60" height="50" as="geometry"/>
                </mxCell>
                <mxCell id="14" value="&lt;font style=&quot;font-size: 20px;&quot;&gt;12&lt;/font&gt;" style="ellipse;whiteSpace=wrap;html=1;" vertex="1" parent="29">
                    <mxGeometry x="5" width="50" height="50" as="geometry"/>
                </mxCell>
                <mxCell id="19" value="" style="group;strokeColor=default;strokeWidth=2;container=0;" vertex="1" connectable="0" parent="29">
                    <mxGeometry width="60" height="50" as="geometry"/>
                </mxCell>
                <mxCell id="30" value="3" style="text;html=1;align=center;verticalAlign=middle;resizable=0;points=[];autosize=1;strokeColor=none;fillColor=none;fontSize=20;" vertex="1" parent="1">
                    <mxGeometry x="140" y="315" width="30" height="40" as="geometry"/>
                </mxCell>
                <mxCell id="31" value="" style="group" vertex="1" connectable="0" parent="1">
                    <mxGeometry x="200" y="310" width="60" height="50" as="geometry"/>
                </mxCell>
                <mxCell id="32" value="&lt;font style=&quot;font-size: 20px;&quot;&gt;11&lt;/font&gt;" style="ellipse;whiteSpace=wrap;html=1;" vertex="1" parent="31">
                    <mxGeometry x="5" width="50" height="50" as="geometry"/>
                </mxCell>
                <mxCell id="33" value="" style="group;strokeColor=default;strokeWidth=2;container=0;" vertex="1" connectable="0" parent="31">
                    <mxGeometry width="60" height="50" as="geometry"/>
                </mxCell>
                <mxCell id="39" value="" style="group" vertex="1" connectable="0" parent="1">
                    <mxGeometry x="290" y="310" width="60" height="50" as="geometry"/>
                </mxCell>
                <mxCell id="40" value="&lt;font style=&quot;font-size: 20px;&quot;&gt;12&lt;/font&gt;" style="ellipse;whiteSpace=wrap;html=1;" vertex="1" parent="39">
                    <mxGeometry x="5" width="50" height="50" as="geometry"/>
                </mxCell>
                <mxCell id="41" value="" style="group;strokeColor=default;strokeWidth=2;container=0;" vertex="1" connectable="0" parent="39">
                    <mxGeometry width="60" height="50" as="geometry"/>
                </mxCell>
                <mxCell id="44" value="" style="group" vertex="1" connectable="0" parent="1">
                    <mxGeometry x="380" y="310" width="50" height="50" as="geometry"/>
                </mxCell>
                <mxCell id="38" value="&lt;font style=&quot;font-size: 20px;&quot;&gt;22&lt;/font&gt;" style="ellipse;whiteSpace=wrap;html=1;" vertex="1" parent="44">
                    <mxGeometry width="50" height="50" as="geometry"/>
                </mxCell>
                <mxCell id="43" value="" style="group;strokeColor=default;strokeWidth=2;container=0;" vertex="1" connectable="0" parent="44">
                    <mxGeometry width="50" height="50" as="geometry"/>
                </mxCell>
                <mxCell id="45" value="" style="group" vertex="1" connectable="0" parent="1">
                    <mxGeometry x="520" y="310" width="50" height="50" as="geometry"/>
                </mxCell>
                <mxCell id="35" value="" style="group;strokeColor=default;strokeWidth=2;container=0;" vertex="1" connectable="0" parent="45">
                    <mxGeometry width="50" height="50" as="geometry"/>
                </mxCell>
                <mxCell id="36" value="&lt;font style=&quot;font-size: 20px;&quot;&gt;64&lt;/font&gt;" style="ellipse;whiteSpace=wrap;html=1;" vertex="1" parent="45">
                    <mxGeometry width="50" height="50" as="geometry"/>
                </mxCell>
                <mxCell id="46" value="" style="group" vertex="1" connectable="0" parent="1">
                    <mxGeometry x="450" y="310" width="50" height="50" as="geometry"/>
                </mxCell>
                <mxCell id="37" value="&lt;font style=&quot;font-size: 20px;&quot;&gt;25&lt;/font&gt;" style="ellipse;whiteSpace=wrap;html=1;" vertex="1" parent="46">
                    <mxGeometry width="50" height="50" as="geometry"/>
                </mxCell>
                <mxCell id="42" value="" style="group;strokeColor=default;strokeWidth=2;container=0;" vertex="1" connectable="0" parent="46">
                    <mxGeometry width="50" height="50" as="geometry"/>
                </mxCell>
            </root>
        </mxGraphModel>
    </diagram>
</mxfile>